<?xml version="1.0" encoding="UTF-8" standalone="no"?>
<!-- Svg Vector Icons : http://www.onlinewebfonts.com/icon -->

<svg
   xmlns:dc="http://purl.org/dc/elements/1.1/"
   xmlns:cc="http://creativecommons.org/ns#"
   xmlns:rdf="http://www.w3.org/1999/02/22-rdf-syntax-ns#"
   xmlns:svg="http://www.w3.org/2000/svg"
   xmlns="http://www.w3.org/2000/svg"
   xmlns:sodipodi="http://sodipodi.sourceforge.net/DTD/sodipodi-0.dtd"
   xmlns:inkscape="http://www.inkscape.org/namespaces/inkscape"
   version="1.1"
   x="0px"
   y="0px"
   viewBox="0 0 1000 1000"
   enable-background="new 0 0 1000 1000"
   xml:space="preserve"
   id="svg2"
   inkscape:version="0.91 r13725"
   sodipodi:docname="Support.svg"><defs
   id="defs12" /><sodipodi:namedview
   pagecolor="#ffffff"
   bordercolor="#666666"
   borderopacity="1"
   objecttolerance="10"
   gridtolerance="10"
   guidetolerance="10"
   inkscape:pageopacity="0"
   inkscape:pageshadow="2"
   inkscape:window-width="2560"
   inkscape:window-height="1377"
   id="namedview10"
   showgrid="false"
   inkscape:zoom="0.472"
   inkscape:cx="173.65131"
   inkscape:cy="634.89021"
   inkscape:window-x="-8"
   inkscape:window-y="-8"
   inkscape:window-maximized="1"
   inkscape:current-layer="svg2" />
<metadata
   id="metadata4"> Svg Vector Icons : http://www.onlinewebfonts.com/icon <rdf:RDF><cc:Work
     rdf:about=""><dc:format>image/svg+xml</dc:format><dc:type
       rdf:resource="http://purl.org/dc/dcmitype/StillImage" /></cc:Work></rdf:RDF></metadata>
<path
   inkscape:connector-curvature="0"
   id="path8"
   d="m 829.8,397.3 c 0,0 72.8,32.1 67.7,198.1 l 52.5,52.4 c 0,0 55.9,-128.6 35.6,-238.8 0,0 -1.7,-103.3 -186.3,-240.4 0,0 -91.5,10.1 -84.7,-84.7 L 641.8,11.1 509.7,143.2 574,207.6 c 0,0 159.2,6.7 103.3,137.1 L 438.6,585.3 392.9,578.5 120.2,851.2 c 0,0 -18.6,66 28.8,106.7 0,0 30.5,37.3 94.8,35.6 L 511.4,715.8 516.5,670.1 789.1,399 c 0,0 15.3,-23.7 40.7,-1.7 z m -516.6,30.4 86.4,86.4 116.9,-116.8 -89.8,-89.8 C 521.5,90.7 248.9,6.1 248.9,6.1 198.1,-7.5 208.3,31.5 208.3,31.5 315,119.5 298.1,148.3 298.1,148.3 284.6,249.9 196.5,288.9 196.5,288.9 108.5,326.1 35.6,202.5 35.6,202.5 6.8,197.4 10.2,229.6 10.2,229.6 81.3,543 313.2,427.7 313.2,427.7 Z M 585.9,710.5 855.1,996.7 987.2,864.6 704.4,592 Z" />
</svg>