<?xml version="1.0" encoding="UTF-8" standalone="no"?>
<svg
   xmlns:dc="http://purl.org/dc/elements/1.1/"
   xmlns:cc="http://creativecommons.org/ns#"
   xmlns:rdf="http://www.w3.org/1999/02/22-rdf-syntax-ns#"
   xmlns:svg="http://www.w3.org/2000/svg"
   xmlns="http://www.w3.org/2000/svg"
   xmlns:sodipodi="http://sodipodi.sourceforge.net/DTD/sodipodi-0.dtd"
   xmlns:inkscape="http://www.inkscape.org/namespaces/inkscape"
   width="170px"
   viewBox="0 0 170 170"
   version="1.1"
   height="170px"
   id="svg4"
   sodipodi:docname="Support.svg"
   inkscape:version="0.92.4 (5da689c313, 2019-01-14)">
  <metadata
     id="metadata10">
    <rdf:RDF>
      <cc:Work
         rdf:about="">
        <dc:format>image/svg+xml</dc:format>
        <dc:type
           rdf:resource="http://purl.org/dc/dcmitype/StillImage" />
        <dc:title></dc:title>
      </cc:Work>
    </rdf:RDF>
  </metadata>
  <defs
     id="defs8" />
  <sodipodi:namedview
     pagecolor="#ffffff"
     bordercolor="#666666"
     borderopacity="1"
     objecttolerance="10"
     gridtolerance="10"
     guidetolerance="10"
     inkscape:pageopacity="0"
     inkscape:pageshadow="2"
     inkscape:window-width="1920"
     inkscape:window-height="1017"
     id="namedview6"
     showgrid="false"
     inkscape:zoom="2.8284271"
     inkscape:cx="44.728824"
     inkscape:cy="45.430622"
     inkscape:window-x="2552"
     inkscape:window-y="-8"
     inkscape:window-maximized="1"
     inkscape:current-layer="svg4" />
  <path
     inkscape:connector-curvature="0"
     id="path8"
     d="m 119.07743,71.261691 c 0,0 10.27059,4.528647 9.55107,27.947856 l 7.40668,7.392573 c 0,0 7.88635,-18.142838 5.02243,-33.6898 0,0 -0.23983,-14.573513 -26.28311,-33.915518 0,0 -12.90877,1.424905 -11.94943,-11.949436 L 92.554453,16.776776 73.91786,35.413377 l 9.071407,9.085529 c 0,0 22.459873,0.945233 14.573528,19.341997 L 63.887098,97.784636 57.439768,96.825305 18.967376,135.29769 c 0,0 -2.624078,9.31126 4.063096,15.05319 0,0 4.302925,5.26228 13.374341,5.02243 l 37.752884,-39.17777 0.7195,-6.44735 38.458293,-38.246662 c 0,0 2.15852,-3.343587 5.74194,-0.239837 z M 46.195729,75.550511 58.385001,87.739782 74.877197,71.261691 62.208251,58.592747 C 75.582591,28.006702 37.124314,16.071381 37.124314,16.071381 29.957475,14.152699 31.396484,19.654794 31.396484,19.654794 46.44967,32.069799 44.065429,36.132886 44.065429,36.132886 42.160851,50.466563 29.731752,55.968669 29.731752,55.968669 17.316748,61.216825 7.032055,43.779398 7.032055,43.779398 2.9689573,43.059888 3.4486311,47.602648 3.4486311,47.602648 13.479383,91.816974 46.195729,75.550511 46.195729,75.550511 Z m 38.472383,39.897299 37.978628,40.37696 18.6366,-18.63661 -39.89728,-38.458283 z"
     style="fill:#ed2629;fill-opacity:1;stroke-width:0.14107953" />
</svg>
