<?xml version="1.0" encoding="UTF-8" standalone="no"?>
<svg
   xmlns:dc="http://purl.org/dc/elements/1.1/"
   xmlns:cc="http://creativecommons.org/ns#"
   xmlns:rdf="http://www.w3.org/1999/02/22-rdf-syntax-ns#"
   xmlns:svg="http://www.w3.org/2000/svg"
   xmlns="http://www.w3.org/2000/svg"
   xmlns:sodipodi="http://sodipodi.sourceforge.net/DTD/sodipodi-0.dtd"
   xmlns:inkscape="http://www.inkscape.org/namespaces/inkscape"
   width="170px"
   viewBox="0 0 170 170"
   version="1.1"
   height="170px"
   id="svg4"
   sodipodi:docname="Touch.svg"
   inkscape:version="0.92.4 (5da689c313, 2019-01-14)">
  <metadata
     id="metadata10">
    <rdf:RDF>
      <cc:Work
         rdf:about="">
        <dc:format>image/svg+xml</dc:format>
        <dc:type
           rdf:resource="http://purl.org/dc/dcmitype/StillImage" />
        <dc:title />
      </cc:Work>
    </rdf:RDF>
  </metadata>
  <defs
     id="defs8" />
  <sodipodi:namedview
     pagecolor="#ffffff"
     bordercolor="#666666"
     borderopacity="1"
     objecttolerance="10"
     gridtolerance="10"
     guidetolerance="10"
     inkscape:pageopacity="0"
     inkscape:pageshadow="2"
     inkscape:window-width="1920"
     inkscape:window-height="1017"
     id="namedview6"
     showgrid="false"
     inkscape:zoom="1.9632612"
     inkscape:cx="34.510762"
     inkscape:cy="85.656336"
     inkscape:window-x="2552"
     inkscape:window-y="-8"
     inkscape:window-maximized="1"
     inkscape:current-layer="svg4" />
  <path
     inkscape:connector-curvature="0"
     d="m 55.693429,7.7819194 c -1.321267,-0.01196 -2.6519,0.05937 -3.984611,0.21834 C 39.021572,9.5300474 28.23585,18.991964 24.889854,31.51355 c -1.24024,4.669854 -1.198542,11.489028 0.08193,16.158881 1.240241,4.42211 2.396949,5.786081 5.041548,5.786081 2.189372,0 3.513187,-0.868452 4.298201,-2.768297 0.53728,-1.280491 0.537112,-1.694073 -0.289704,-4.586406 -1.859586,-6.363758 -0.908629,-13.306579 2.47918,-18.555516 6.653306,-10.290391 19.133048,-13.554176 30.000979,-7.851565 5.950346,3.140066 10.538083,9.917029 11.446964,16.85987 0.413413,3.058013 0.371674,4.132615 -0.247671,7.314484 -0.661147,3.305756 -0.661304,3.842932 -0.08381,5.165237 0.619344,1.570038 2.438656,2.768601 4.090758,2.768601 1.611841,0 3.760923,-1.693967 4.298205,-3.429675 2.065517,-6.157828 1.653619,-13.678158 -0.992522,-20.621 C 80.372112,15.805993 68.465572,7.8977824 55.693366,7.7819194 Z m -0.59999,17.6646046 c -1.520714,-0.001 -2.688081,0.217574 -3.963736,0.654118 -4.090771,1.446161 -6.653074,3.84287 -8.512649,7.851576 -0.908891,1.941638 -0.909038,2.149311 -1.116511,33.101015 l -0.205951,31.199438 -3.016273,-5.28922 c -3.471426,-5.992147 -5.041212,-7.769783 -8.306708,-9.298019 -1.859575,-0.86863 -2.934282,-1.074477 -5.413211,-1.074477 -2.686402,0 -3.513281,0.206015 -5.868333,1.364192 -4.545988,2.231185 -6.611378,5.950282 -6.611378,11.860364 0,4.751919 0.950621,7.851639 6.157756,20.455279 6.941288,16.69442 14.834782,30.78594 21.859688,39.00928 3.305746,3.92664 4.79393,4.71021 7.190796,4.0088 2.190924,-0.66115 3.429507,-2.47891 3.139961,-4.7101 -0.123867,-1.15662 -0.785087,-2.23109 -2.396929,-4.13249 -8.017402,-9.13222 -16.488301,-24.87767 -24.587768,-45.74644 -1.404357,-3.6371 -1.90166,-5.496419 -2.065788,-7.933539 -0.20593,-2.97594 -0.165397,-3.22379 0.827101,-4.21474 1.322304,-1.322295 3.057918,-1.404297 4.545892,-0.247672 0.579083,0.455212 4.174334,6.281552 7.975557,12.934841 3.843026,6.6115 7.562323,12.68737 8.265273,13.38877 1.777521,1.85959 4.09057,1.90144 6.033761,0.16573 l 1.364192,-1.19846 0.20443,-40.045352 c 0.205931,-43.597158 0.08182,-40.994225 2.602576,-42.4822 1.735708,-1.032757 4.214763,-0.619323 5.826604,0.992518 l 1.280429,1.280418 0.205941,28.224895 c 0.247733,31.448722 0.08203,29.877312 3.099741,30.869812 1.983452,0.66114 4.1327,-0.0836 5.207271,-1.81781 0.743211,-1.19843 0.785067,-2.18946 0.785067,-13.596228 0,-13.182733 0.08192,-13.925871 2.148953,-15.331781 1.198428,-0.86863 4.214899,-0.826828 5.537194,0 2.149119,1.446171 2.23091,1.983347 2.23091,16.158577 0,12.232042 0.04186,13.224602 0.785056,14.423032 1.653654,2.72821 5.868303,2.72821 7.521949,0 0.702953,-1.15663 0.785059,-2.14896 0.785059,-11.322986 0,-11.033602 0.165644,-11.902441 2.478892,-13.100869 2.478929,-1.280492 5.660958,-0.413445 6.819132,1.859543 0.495482,0.990945 0.619343,3.058096 0.619343,11.157562 0,10.95154 0.165643,11.81867 2.478892,13.01711 1.52977,0.78501 2.6027,0.78501 4.13248,0 2.10731,-1.07457 2.47889,-2.39681 2.47889,-8.802367 0,-5.290751 0.0822,-5.868239 0.95079,-7.150272 0.49702,-0.743222 1.61185,-1.612009 2.43866,-1.941807 2.19094,-0.867078 4.29834,0.247618 5.66089,2.93402 0.99095,1.943191 0.99068,2.231217 1.19817,14.463246 0.3716,22.728369 -1.32227,40.125929 -4.91756,50.829739 -1.57004,4.79372 -1.57003,5.78619 0.20594,7.56215 2.14913,2.14914 5.28933,1.81921 6.85935,-0.74332 2.72821,-4.46238 5.49653,-18.71961 6.61289,-33.88579 0.49547,-7.27264 0.53754,-32.481348 0.0405,-36.366178 -1.36255,-10.372454 -10.62035,-16.901998 -19.05117,-13.388768 -0.49547,0.20593 -0.78512,-0.123982 -1.15673,-1.15673 -0.86864,-2.355062 -3.96687,-5.45492 -6.942821,-6.901091 -2.272986,-1.156625 -3.141397,-1.322158 -5.660577,-1.322158 -1.653655,0 -3.801298,0.329734 -4.83561,0.661084 -1.693897,0.619344 -1.859596,0.619417 -2.231207,-0.04175 -0.205931,-0.3716 -1.198489,-1.570122 -2.190983,-2.60287 -3.18188,-3.387809 -7.893586,-4.835397 -13.017105,-3.966767 L 69.638916,56.392826 69.514923,46.144018 C 69.391057,36.0611 69.391015,35.853795 68.316454,33.582349 c -2.272988,-4.835523 -6.735243,-7.810004 -12.108047,-8.09955 -0.394248,-0.02381 -0.764065,-0.03598 -1.115,-0.0363 z"
     id="path10"
     style="fill:#ed2629;fill-opacity:1;stroke-width:0.15483592" />
</svg>
