<?xml version="1.0" encoding="UTF-8" standalone="no"?>
<!-- Svg Vector Icons : http://www.onlinewebfonts.com/icon -->

<svg
   xmlns:dc="http://purl.org/dc/elements/1.1/"
   xmlns:cc="http://creativecommons.org/ns#"
   xmlns:rdf="http://www.w3.org/1999/02/22-rdf-syntax-ns#"
   xmlns:svg="http://www.w3.org/2000/svg"
   xmlns="http://www.w3.org/2000/svg"
   xmlns:sodipodi="http://sodipodi.sourceforge.net/DTD/sodipodi-0.dtd"
   xmlns:inkscape="http://www.inkscape.org/namespaces/inkscape"
   version="1.1"
   x="0px"
   y="0px"
   viewBox="0 0 1000 1000"
   enable-background="new 0 0 1000 1000"
   xml:space="preserve"
   id="svg2"
   inkscape:version="0.91 r13725"
   sodipodi:docname="Touch.svg"><defs
   id="defs16" /><sodipodi:namedview
   pagecolor="#ffffff"
   bordercolor="#666666"
   borderopacity="1"
   objecttolerance="10"
   gridtolerance="10"
   guidetolerance="10"
   inkscape:pageopacity="0"
   inkscape:pageshadow="2"
   inkscape:window-width="2560"
   inkscape:window-height="1377"
   id="namedview14"
   showgrid="false"
   inkscape:zoom="0.6675088"
   inkscape:cx="301.88623"
   inkscape:cy="360.26007"
   inkscape:window-x="-8"
   inkscape:window-y="-8"
   inkscape:window-maximized="1"
   inkscape:current-layer="svg2" />
<metadata
   id="metadata4"> Svg Vector Icons : http://www.onlinewebfonts.com/icon <rdf:RDF><cc:Work
     rdf:about=""><dc:format>image/svg+xml</dc:format><dc:type
       rdf:resource="http://purl.org/dc/dcmitype/StillImage" /></cc:Work></rdf:RDF></metadata>
<path
   d="M 410.50391 10.009766 C 401.9706 9.932356 393.37672 10.393359 384.76953 11.419922 C 302.82953 21.299922 233.17055 82.409297 211.56055 163.2793 C 203.55055 193.4393 203.81984 237.48063 212.08984 267.64062 C 220.09984 296.20063 227.57039 305.00977 244.65039 305.00977 C 258.79039 305.00977 267.34016 299.40086 272.41016 287.13086 C 275.88016 278.86086 275.87906 276.18977 270.53906 257.50977 C 258.52906 216.40977 264.67078 171.56992 286.55078 137.66992 C 329.52078 71.209922 410.12055 50.130938 480.31055 86.960938 C 518.74055 107.24094 548.37023 151.00961 554.24023 195.84961 C 556.91023 215.59961 556.64062 222.53984 552.64062 243.08984 C 548.37063 264.43984 548.36961 267.90922 552.09961 276.44922 C 556.09961 286.58922 567.84953 294.33008 578.51953 294.33008 C 588.92953 294.33008 602.8093 283.38969 606.2793 272.17969 C 619.6193 232.40969 616.95914 183.84 599.86914 139 C 569.89039 61.832813 492.99254 10.758059 410.50391 10.009766 z M 406.62891 124.0957 C 396.80743 124.08672 389.26805 125.50094 381.0293 128.32031 C 354.6093 137.66031 338.06078 153.1393 326.05078 179.0293 C 320.18078 191.5693 320.17984 192.91055 318.83984 392.81055 L 317.50977 594.31055 L 298.0293 560.15039 C 275.6093 521.45039 265.47086 509.96961 244.38086 500.09961 C 232.37086 494.48961 225.42992 493.16016 209.41992 493.16016 C 192.06992 493.16016 186.72953 494.4907 171.51953 501.9707 C 142.15953 516.3807 128.82031 540.40031 128.82031 578.57031 C 128.82031 609.26031 134.95984 629.27969 168.58984 710.67969 C 213.41984 818.49969 264.39953 909.50914 309.76953 962.61914 C 331.11953 987.97914 340.73094 993.03977 356.21094 988.50977 C 370.36094 984.23977 378.36023 972.49984 376.49023 958.08984 C 375.69023 950.61984 371.41977 943.68039 361.00977 931.40039 C 309.22977 872.42039 254.52094 770.72922 202.21094 635.94922 C 193.14094 612.45922 189.92914 600.45094 188.86914 584.71094 C 187.53914 565.49094 187.80094 563.89023 194.21094 557.49023 C 202.75094 548.95023 213.96031 548.42062 223.57031 555.89062 C 227.31031 558.83063 250.53008 596.45969 275.08008 639.42969 C 299.90008 682.12969 323.92094 721.37039 328.46094 725.90039 C 339.94094 737.91039 354.87969 738.1807 367.42969 726.9707 L 376.24023 719.23047 L 377.56055 460.59961 C 378.89055 179.02961 378.08914 195.84047 394.36914 186.23047 C 405.57914 179.56047 421.59 182.23063 432 192.64062 L 440.26953 200.91016 L 441.59961 383.19922 C 443.19961 586.30922 442.12914 576.16031 461.61914 582.57031 C 474.42914 586.84031 488.31 582.03008 495.25 570.83008 C 500.05 563.09008 500.32031 556.68953 500.32031 483.01953 C 500.32031 397.87953 500.84922 393.08 514.19922 384 C 521.93922 378.39 541.42094 378.66 549.96094 384 C 563.84094 393.34 564.36914 396.80937 564.36914 488.35938 C 564.36914 567.35938 564.63945 573.76977 569.43945 581.50977 C 580.11945 599.12977 607.33953 599.12977 618.01953 581.50977 C 622.55953 574.03977 623.08984 567.63086 623.08984 508.38086 C 623.08984 437.12086 624.15961 431.50953 639.09961 423.76953 C 655.10961 415.49953 675.66063 421.0993 683.14062 435.7793 C 686.34063 442.1793 687.14062 455.52984 687.14062 507.83984 C 687.14062 578.56984 688.21039 584.17016 703.15039 591.91016 C 713.03039 596.98016 719.95984 596.98016 729.83984 591.91016 C 743.44984 584.97016 745.84961 576.43055 745.84961 535.06055 C 745.84961 500.89055 746.38023 497.16086 751.99023 488.88086 C 755.20023 484.08086 762.40023 478.46984 767.74023 476.33984 C 781.89023 470.73984 795.50078 477.93906 804.30078 495.28906 C 810.70078 507.83906 810.69906 509.69922 812.03906 588.69922 C 814.43906 735.48922 803.4993 847.85047 780.2793 916.98047 C 770.1393 947.94047 770.13937 954.35031 781.60938 965.82031 C 795.48937 979.70031 815.77016 977.56953 825.91016 961.01953 C 843.53016 932.19953 861.40914 840.11992 868.61914 742.16992 C 871.81914 695.19992 872.09086 532.39078 868.88086 507.30078 C 860.08086 440.31078 800.28984 398.14008 745.83984 420.83008 C 742.63984 422.16008 740.76914 420.02938 738.36914 413.35938 C 732.75914 398.14938 712.7493 378.12906 693.5293 368.78906 C 678.8493 361.31906 673.2407 360.25 656.9707 360.25 C 646.2907 360.25 632.42023 362.37953 625.74023 364.51953 C 614.80023 368.51953 613.73008 368.52 611.33008 364.25 C 610.00008 361.85 603.58969 354.10945 597.17969 347.43945 C 576.62969 325.55945 546.19937 316.21031 513.10938 321.82031 L 500.57031 323.96094 L 499.76953 257.76953 C 498.96953 192.64953 498.9693 191.31063 492.0293 176.64062 C 477.3493 145.41063 448.53008 126.20008 413.83008 124.33008 C 411.28383 124.17633 408.8954 124.09778 406.62891 124.0957 z "
   id="path10" />
</svg>