<?xml version="1.0" encoding="UTF-8" standalone="no"?>
<svg
   xmlns:dc="http://purl.org/dc/elements/1.1/"
   xmlns:cc="http://creativecommons.org/ns#"
   xmlns:rdf="http://www.w3.org/1999/02/22-rdf-syntax-ns#"
   xmlns:svg="http://www.w3.org/2000/svg"
   xmlns="http://www.w3.org/2000/svg"
   xmlns:sodipodi="http://sodipodi.sourceforge.net/DTD/sodipodi-0.dtd"
   xmlns:inkscape="http://www.inkscape.org/namespaces/inkscape"
   width="170px"
   viewBox="0 0 170 170"
   version="1.1"
   height="170px"
   id="svg4"
   sodipodi:docname="UI.svg"
   inkscape:version="0.92.4 (5da689c313, 2019-01-14)">
  <metadata
     id="metadata10">
    <rdf:RDF>
      <cc:Work
         rdf:about="">
        <dc:format>image/svg+xml</dc:format>
        <dc:type
           rdf:resource="http://purl.org/dc/dcmitype/StillImage" />
        <dc:title />
      </cc:Work>
    </rdf:RDF>
  </metadata>
  <defs
     id="defs8">
    <clipPath
       id="a"
       clipPathUnits="userSpaceOnUse">
      <path
         d="M 0,0 H 2467.7 V 3078.5 H 0 Z"
         id="path3341"
         inkscape:connector-curvature="0" />
    </clipPath>
  </defs>
  <sodipodi:namedview
     pagecolor="#ffffff"
     bordercolor="#666666"
     borderopacity="1"
     objecttolerance="10"
     gridtolerance="10"
     guidetolerance="10"
     inkscape:pageopacity="0"
     inkscape:pageshadow="2"
     inkscape:window-width="1920"
     inkscape:window-height="1017"
     id="namedview6"
     showgrid="false"
     inkscape:zoom="3.9265224"
     inkscape:cx="-49.207466"
     inkscape:cy="46.930813"
     inkscape:window-x="2552"
     inkscape:window-y="-8"
     inkscape:window-maximized="1"
     inkscape:current-layer="svg4" />
  <path
     inkscape:connector-curvature="0"
     d="m 4.0933592,16.894805 c -0.95983,0 -1.7325506,0.77272 -1.7325506,1.732557 V 148.56907 c 0,0.95984 0.7727206,1.73256 1.7325506,1.73256 H 154.82589 c 0.95983,0 1.73255,-0.77272 1.73255,-1.73256 V 18.627362 c 0,-0.959837 -0.77272,-1.732557 -1.73255,-1.732557 z m 10.3953488,8.754146 h 8.662787 c 0.959837,0 1.732558,0.772721 1.732558,1.732558 v 8.662789 c 0,0.959837 -0.772721,1.732557 -1.732558,1.732557 h -8.662787 c -0.959837,0 -1.732558,-0.77272 -1.732558,-1.732557 v -8.662789 c 0,-0.959837 0.772721,-1.732558 1.732558,-1.732558 z m 86.658342,0 h 8.66279 c 0.95984,0 1.73256,0.772721 1.73256,1.732558 v 8.662789 c 0,0.959837 -0.77272,1.732557 -1.73256,1.732557 h -8.66279 c -0.95984,0 -1.732564,-0.77272 -1.732564,-1.732557 v -8.662789 c 0,-0.959837 0.772724,-1.732558 1.732564,-1.732558 z m 17.32558,0 h 8.66279 c 0.95984,0 1.73256,0.772721 1.73256,1.732558 v 8.662789 c 0,0.959837 -0.77272,1.732557 -1.73256,1.732557 h -8.66279 c -0.95984,0 -1.73256,-0.77272 -1.73256,-1.732557 v -8.662789 c 0,-0.959837 0.77272,-1.732558 1.73256,-1.732558 z m 17.32558,0 h 8.66279 c 0.95983,0 1.73255,0.772721 1.73255,1.732558 v 8.662789 c 0,0.959837 -0.77272,1.732557 -1.73255,1.732557 h -8.66279 c -0.95984,0 -1.73256,-0.77272 -1.73256,-1.732557 v -8.662789 c 0,-0.959837 0.77272,-1.732558 1.73256,-1.732558 z M 11.246936,42.883171 H 147.67231 c 2.04274,0 3.68846,1.199918 3.68846,2.690194 v 96.840455 c 0,1.49034 -1.64572,2.69014 -3.68846,2.69014 H 11.246936 c -2.0427398,0 -3.6884618,-1.1998 -3.6884618,-2.69014 V 45.573365 c 0,-1.490276 1.645722,-2.690194 3.6884618,-2.690194 z m 69.078967,5.197673 c -0.959838,0 -1.732558,0.772721 -1.732558,1.732558 v 10.395226 c 0,0.959837 0.77272,1.732558 1.732558,1.732558 h 10.395346 c 0.959837,0 1.732558,-0.772721 1.732558,-1.732558 V 49.813402 c 0,-0.959837 -0.772721,-1.732558 -1.732558,-1.732558 z m -66.01655,0.0035 c -0.861393,0 -1.553203,0.873174 -1.553203,1.95928 v 70.577906 c 0,1.08614 0.69181,1.95935 1.553203,1.95935 h 57.533115 c 0.861393,0 1.553203,-0.87321 1.553203,-1.95935 V 50.04359 c 0,-1.086106 -0.69181,-1.95928 -1.553203,-1.95928 z m 83.342123,5.194208 v 3.465115 H 146.1631 V 53.278552 Z M 19.686379,55.01111 h 45.98723 v 8.662667 h -45.98723 z m 60.639524,12.127749 c -0.959838,0 -1.732558,0.772721 -1.732558,1.732558 v 10.395347 c 0,0.959837 0.77272,1.732557 1.732558,1.732557 h 10.395346 c 0.959837,0 1.732558,-0.77272 1.732558,-1.732557 V 68.871417 c 0,-0.959837 -0.772721,-1.732558 -1.732558,-1.732558 z m -60.639524,5.197673 h 45.98723 v 8.662789 h -45.98723 z m 77.965097,0 v 3.465116 H 146.1631 V 72.336532 Z M 80.325903,86.196995 c -0.959838,0 -1.732558,0.772721 -1.732558,1.732558 v 10.395346 c 0,0.959836 0.77272,1.732551 1.732558,1.732551 h 10.395346 c 0.959837,0 1.732558,-0.772715 1.732558,-1.732551 V 87.929553 c 0,-0.959837 -0.772721,-1.732558 -1.732558,-1.732558 z M 19.686379,89.66211 h 45.98723 v 8.662789 h -45.98723 z m 77.965097,1.732558 v 3.465116 H 146.1631 V 91.394668 Z M 80.325903,105.25513 c -0.959838,0 -1.732558,0.77272 -1.732558,1.73255 v 10.39535 c 0,0.95984 0.77272,1.73256 1.732558,1.73256 h 10.395346 c 0.959837,0 1.732558,-0.77272 1.732558,-1.73256 v -10.39535 c 0,-0.95983 -0.772721,-1.73255 -1.732558,-1.73255 z m -59.847693,1.73255 h 45.98723 v 8.6628 H 20.47821 Z m 77.173266,3.46512 v 3.46512 H 146.1631 v -3.46512 z m 19.058134,15.59302 c -0.95983,0 -1.73255,0.77272 -1.73255,1.73256 v 10.39535 c 0,0.95984 0.77272,1.73256 1.73255,1.73256 h 27.72093 c 0.95984,0 1.73256,-0.77272 1.73256,-1.73256 v -10.39535 c 0,-0.95984 -0.77272,-1.73256 -1.73256,-1.73256 z m -36.383707,0 c -0.959838,0 -1.732558,0.77272 -1.732558,1.73256 v 10.39535 c 0,0.95984 0.77272,1.73256 1.732558,1.73256 h 27.720917 c 0.95984,0 1.73256,-0.77272 1.73256,-1.73256 v -10.39535 c 0,-0.95984 -0.77272,-1.73256 -1.73256,-1.73256 z"
     id="rect7020"
     style="fill:#ed2629;fill-opacity:1;stroke-width:1.73255777" />
</svg>
