<?xml version="1.0" encoding="UTF-8" standalone="no"?>
<!-- Created with Inkscape (http://www.inkscape.org/) -->

<svg
   xmlns:dc="http://purl.org/dc/elements/1.1/"
   xmlns:cc="http://creativecommons.org/ns#"
   xmlns:rdf="http://www.w3.org/1999/02/22-rdf-syntax-ns#"
   xmlns:svg="http://www.w3.org/2000/svg"
   xmlns="http://www.w3.org/2000/svg"
   xmlns:sodipodi="http://sodipodi.sourceforge.net/DTD/sodipodi-0.dtd"
   xmlns:inkscape="http://www.inkscape.org/namespaces/inkscape"
   width="89"
   height="77"
   viewBox="0 0 89.000001 77.000001"
   id="svg3806"
   version="1.1"
   inkscape:version="0.91 r13725"
   sodipodi:docname="UI.svg">
  <defs
     id="defs3808" />
  <sodipodi:namedview
     id="base"
     pagecolor="#ffffff"
     bordercolor="#666666"
     borderopacity="1.0"
     inkscape:pageopacity="0.0"
     inkscape:pageshadow="2"
     inkscape:zoom="5.6"
     inkscape:cx="-30.252092"
     inkscape:cy="18.791908"
     inkscape:document-units="px"
     inkscape:current-layer="layer1"
     showgrid="false"
     units="px"
     inkscape:window-width="2560"
     inkscape:window-height="1377"
     inkscape:window-x="-8"
     inkscape:window-y="-8"
     inkscape:window-maximized="1" />
  <metadata
     id="metadata3811">
    <rdf:RDF>
      <cc:Work
         rdf:about="">
        <dc:format>image/svg+xml</dc:format>
        <dc:type
           rdf:resource="http://purl.org/dc/dcmitype/StillImage" />
        <dc:title></dc:title>
      </cc:Work>
    </rdf:RDF>
  </metadata>
  <g
     inkscape:label="Layer 1"
     inkscape:groupmode="layer"
     id="layer1"
     transform="translate(0,-975.36213)">
    <path
       inkscape:connector-curvature="0"
       d="m 1,975.36217 c -0.554,0 -1,0.446 -1,1 l 0,74.99993 c 0,0.554 0.446,1 1,1 l 87,0 c 0.554,0 1,-0.446 1,-1 l 0,-74.99993 c 0,-0.554 -0.446,-1 -1,-1 l -87,0 z m 6.0000001,5.05273 4.9999999,0 c 0.554,0 1,0.446 1,1 l 0,5 c 0,0.554 -0.446,1 -1,1 l -4.9999999,0 c -0.554,0 -1,-0.446 -1,-1 l 0,-5 c 0,-0.554 0.446,-1 1,-1 z m 50.0175799,0 5,0 c 0.554,0 1,0.446 1,1 l 0,5 c 0,0.554 -0.446,1 -1,1 l -5,0 c -0.554,0 -1,-0.446 -1,-1 l 0,-5 c 0,-0.554 0.446,-1 1,-1 z m 10,0 5,0 c 0.554,0 1,0.446 1,1 l 0,5 c 0,0.554 -0.446,1 -1,1 l -5,0 c -0.554,0 -1,-0.446 -1,-1 l 0,-5 c 0,-0.554 0.446,-1 1,-1 z m 10,0 5,0 c 0.554,0 1,0.446 1,1 l 0,5 c 0,0.554 -0.446,1 -1,1 l -5,0 c -0.554,0 -1,-0.446 -1,-1 l 0,-5 c 0,-0.554 0.446,-1 1,-1 z m -71.8886699,9.94727 78.7421799,0 c 1.17903,0 2.12891,0.69257 2.12891,1.55273 l 0,55.8945 c 0,0.8602 -0.94988,1.5527 -2.12891,1.5527 l -78.7421799,0 C 3.94988,1049.3621 3,1048.6696 3,1047.8094 l 0,-55.8945 c 0,-0.86016 0.94988,-1.55273 2.1289101,-1.55273 z m 39.8710899,3 c -0.554,0 -1,0.446 -1,1 l 0,5.99993 c 0,0.554 0.446,1 1,1 l 6,0 c 0.554,0 1,-0.446 1,-1 l 0,-5.99993 c 0,-0.554 -0.446,-1 -1,-1 l -6,0 z m -38.1035199,0.002 c -0.49718,0 -0.89648,0.50398 -0.89648,1.13086 l 0,40.73627 c 0,0.6269 0.3993,1.1309 0.89648,1.1309 l 33.2070399,0 c 0.49718,0 0.89648,-0.504 0.89648,-1.1309 l 0,-40.73627 c 0,-0.62688 -0.3993,-1.13086 -0.89648,-1.13086 l -33.2070399,0 z M 55,996.36217 l 0,2 28,0 0,-2 -28,0 z m -45,1 26.54297,0 0,4.99993 -26.54297,0 0,-4.99993 z m 35,6.99993 c -0.554,0 -1,0.446 -1,1 l 0,6 c 0,0.554 0.446,1 1,1 l 6,0 c 0.554,0 1,-0.446 1,-1 l 0,-6 c 0,-0.554 -0.446,-1 -1,-1 l -6,0 z m -35,3 26.54297,0 0,5 -26.54297,0 0,-5 z m 45,0 0,2 28,0 0,-2 -28,0 z m -10,8 c -0.554,0 -1,0.446 -1,1 l 0,6 c 0,0.554 0.446,1 1,1 l 6,0 c 0.554,0 1,-0.446 1,-1 l 0,-6 c 0,-0.554 -0.446,-1 -1,-1 l -6,0 z m -35,2 26.54297,0 0,5 -26.54297,0 0,-5 z m 45,1 0,2 28,0 0,-2 -28,0 z m -10,8 c -0.554,0 -1,0.446 -1,1 l 0,6 c 0,0.554 0.446,1 1,1 l 6,0 c 0.554,0 1,-0.446 1,-1 l 0,-6 c 0,-0.554 -0.446,-1 -1,-1 l -6,0 z m -34.54297,1 26.54297,0 0,5 -26.54297,0 0,-5 z m 44.54297,2 0,2 28,0 0,-2 -28,0 z m 11,9 c -0.554,0 -1,0.446 -1,1 l 0,6 c 0,0.554 0.446,1 1,1 l 16,0 c 0.554,0 1,-0.446 1,-1 l 0,-6 c 0,-0.554 -0.446,-1 -1,-1 l -16,0 z m -21,0 c -0.554,0 -1,0.446 -1,1 l 0,6 c 0,0.554 0.446,1 1,1 l 16,0 c 0.554,0 1,-0.446 1,-1 l 0,-6 c 0,-0.554 -0.446,-1 -1,-1 l -16,0 z"
       id="rect7020" />
  </g>
</svg>
