<?xml version="1.0" encoding="UTF-8" standalone="no"?>
<svg
   xmlns:dc="http://purl.org/dc/elements/1.1/"
   xmlns:cc="http://creativecommons.org/ns#"
   xmlns:rdf="http://www.w3.org/1999/02/22-rdf-syntax-ns#"
   xmlns:svg="http://www.w3.org/2000/svg"
   xmlns="http://www.w3.org/2000/svg"
   xmlns:sodipodi="http://sodipodi.sourceforge.net/DTD/sodipodi-0.dtd"
   xmlns:inkscape="http://www.inkscape.org/namespaces/inkscape"
   xml:space="preserve"
   height="109.25"
   viewBox="0 0 107 109.25072"
   width="107"
   version="1.1"
   id="svg3336"
   inkscape:version="0.91 r13725"
   sodipodi:docname="Unity_Technologies_logo.svg"><metadata
     id="metadata3363"><rdf:RDF><cc:Work
         rdf:about=""><dc:format>image/svg+xml</dc:format><dc:type
           rdf:resource="http://purl.org/dc/dcmitype/StillImage" /><dc:title></dc:title></cc:Work></rdf:RDF></metadata><sodipodi:namedview
     pagecolor="#ffffff"
     bordercolor="#666666"
     borderopacity="1"
     objecttolerance="10"
     gridtolerance="10"
     guidetolerance="10"
     inkscape:pageopacity="0"
     inkscape:pageshadow="2"
     inkscape:window-width="2560"
     inkscape:window-height="1377"
     id="namedview3361"
     showgrid="false"
     inkscape:zoom="4.4500587"
     inkscape:cx="135.6999"
     inkscape:cy="68.760646"
     inkscape:window-x="-8"
     inkscape:window-y="-8"
     inkscape:window-maximized="1"
     inkscape:current-layer="svg3336" /><defs
     id="defs3338"><clipPath
       id="a"
       clipPathUnits="userSpaceOnUse"><path
         d="m 0,0 2467.7,0 0,3078.5 L 0,3078.5 0,0 Z"
         id="path3341"
         inkscape:connector-curvature="0" /></clipPath></defs><g
     transform="matrix(1.25,0,0,-1.25,-72.974,438.62)"
     id="g3343"><g
       transform="matrix(0.19707,0,0,0.19707,-56.668,-255.78)"
       id="g3345"><g
         clip-path="url(#a)"
         id="g3347"><path
           d="m 865.9,2856.7 77.609,134.02 37.504,-134.02 -37.504,-133.99 -77.609,133.99 z m -37.829,-21.76 77.622,-134 -135.18,34.63 -97.668,99.37 155.23,0 z m 77.606,177.56 -77.606,-134.02 -155.23,0 97.668,99.37 135.17,34.65 z m 110.8,-110.19 -47.353,176.15 -176.73,-47.21 -26.161,-45.99 -53.085,0.38 -129.36,-128.95 129.36,-128.92 0.003,0 53.063,0.39 26.199,-45.99 176.71,-47.21 47.353,176.13 -26.892,45.61 26.892,45.61"
           id="path3359"
           inkscape:connector-curvature="0" /></g></g></g></svg>