<?xml version="1.0" encoding="UTF-8" standalone="no"?>
<svg
   xmlns:dc="http://purl.org/dc/elements/1.1/"
   xmlns:cc="http://creativecommons.org/ns#"
   xmlns:rdf="http://www.w3.org/1999/02/22-rdf-syntax-ns#"
   xmlns:svg="http://www.w3.org/2000/svg"
   xmlns="http://www.w3.org/2000/svg"
   xmlns:sodipodi="http://sodipodi.sourceforge.net/DTD/sodipodi-0.dtd"
   xmlns:inkscape="http://www.inkscape.org/namespaces/inkscape"
   width="170px"
   viewBox="0 0 170 170"
   version="1.1"
   height="170px"
   id="svg4"
   sodipodi:docname="Unity_Technologies_logo.svg"
   inkscape:version="0.92.4 (5da689c313, 2019-01-14)">
  <metadata
     id="metadata10">
    <rdf:RDF>
      <cc:Work
         rdf:about="">
        <dc:format>image/svg+xml</dc:format>
        <dc:type
           rdf:resource="http://purl.org/dc/dcmitype/StillImage" />
        <dc:title></dc:title>
      </cc:Work>
    </rdf:RDF>
  </metadata>
  <defs
     id="defs8">
    <clipPath
       id="a"
       clipPathUnits="userSpaceOnUse">
      <path
         d="M 0,0 H 2467.7 V 3078.5 H 0 Z"
         id="path3341"
         inkscape:connector-curvature="0" />
    </clipPath>
  </defs>
  <sodipodi:namedview
     pagecolor="#ffffff"
     bordercolor="#666666"
     borderopacity="1"
     objecttolerance="10"
     gridtolerance="10"
     guidetolerance="10"
     inkscape:pageopacity="0"
     inkscape:pageshadow="2"
     inkscape:window-width="2560"
     inkscape:window-height="1377"
     id="namedview6"
     showgrid="false"
     inkscape:zoom="3.9265224"
     inkscape:cx="-11.133062"
     inkscape:cy="46.930813"
     inkscape:window-x="-8"
     inkscape:window-y="-8"
     inkscape:window-maximized="1"
     inkscape:current-layer="svg4" />
  <g
     transform="matrix(1.76378,0,0,-1.76378,-97.175941,627.63768)"
     id="g3343"
     style="fill:#ed2629;fill-opacity:1">
    <g
       transform="matrix(0.19707,0,0,0.19707,-56.668,-255.78)"
       id="g3345"
       style="fill:#ed2629;fill-opacity:1">
      <g
         clip-path="url(#a)"
         id="g3347"
         style="fill:#ed2629;fill-opacity:1">
        <path
           d="m 865.9,2856.7 77.609,134.02 37.504,-134.02 -37.504,-133.99 z m -37.829,-21.76 77.622,-134 -135.18,34.63 -97.668,99.37 h 155.23 z m 77.606,177.56 -77.606,-134.02 h -155.23 l 97.668,99.37 135.17,34.65 z m 110.8,-110.19 -47.353,176.15 -176.73,-47.21 -26.161,-45.99 -53.085,0.38 -129.36,-128.95 129.36,-128.92 h 0.003 l 53.063,0.39 26.199,-45.99 176.71,-47.21 47.353,176.13 -26.892,45.61 26.892,45.61"
           id="path3359"
           inkscape:connector-curvature="0"
           style="fill:#ed2629;fill-opacity:1" />
      </g>
    </g>
  </g>
</svg>
