<svg width="145" height="180" fill="none" xmlns="http://www.w3.org/2000/svg"><defs/><path d="M0 29.537V145h115.463L145 115.463V0H29.537L0 29.537z" fill="#ED1C24"/><path d="M115.03 23.75L53.78 84.255 29.97 60.737 11.25 79.234l42.53 42.016 79.97-79.003-18.72-18.497z" fill="#fff"/><path fill-rule="evenodd" clip-rule="evenodd" d="M10.977 179.639h-5.79v-14.217H0v-5.061h16.165v5.061h-5.188v14.217zm25.816 0h-5.67l-7.117-9.759v9.759h-5.79v-19.278h6.031l6.756 9.157v-9.157h5.79v19.278zm20.145.361c-3.015 0-5.549-.964-7.6-2.771-2.05-1.807-3.015-4.217-3.015-7.229 0-2.892.965-5.301 3.016-7.229 2.05-1.807 4.584-2.771 7.6-2.771 2.291 0 4.222.482 5.548 1.566 1.448 1.085 2.534 2.41 3.137 3.976l-5.067 2.289c-.24-.723-.723-1.445-1.447-1.927-.724-.603-1.448-.844-2.292-.844-1.448 0-2.533.482-3.378 1.446-.844.964-1.327 2.048-1.327 3.494 0 1.325.483 2.53 1.327 3.494.845.964 2.05 1.446 3.378 1.446.844 0 1.568-.241 2.292-.844.724-.602 1.206-1.204 1.447-1.927l5.067 2.289c-.362.723-.724 1.325-1.206 1.928-.483.602-1.086 1.204-1.69 1.807-.723.602-1.567 1.084-2.532 1.325-.966.362-2.172.482-3.258.482zm29.193-.361h-5.79v-7.35h-6.876v7.35h-5.79v-19.278h5.79v6.868h6.876v-6.868h5.79v19.278zm17.733 0H89.268v-19.278h14.596v5.061h-8.806v1.927h8.565v5.061h-8.565v2.168h8.806v5.061zm12.184.361c-3.016 0-5.549-.964-7.6-2.771-2.05-1.807-3.015-4.217-3.015-7.229 0-2.892.965-5.301 3.015-7.229 2.051-1.807 4.584-2.771 7.6-2.771 2.292 0 4.222.482 5.549 1.566 1.448 1.085 2.534 2.41 3.137 3.976l-5.067 2.289c-.241-.723-.724-1.445-1.447-1.927-.724-.603-1.448-.844-2.292-.844-1.448 0-2.534.482-3.378 1.446-.845.964-1.327 2.048-1.327 3.494 0 1.325.482 2.53 1.327 3.494.844.964 2.051 1.446 3.378 1.446.844 0 1.568-.241 2.292-.844.723-.602 1.206-1.204 1.447-1.927l5.067 2.289c-.362.723-.724 1.325-1.207 1.928-.482.602-1.085 1.204-1.688 1.807-.724.602-1.569 1.084-2.534 1.325-.965.362-2.05.482-3.257.482zm28.952-.361h-7.117l-4.343-6.747-1.086 1.445v5.302h-5.79v-19.278h5.79v7.229l5.067-7.229h7.117l-7.238 8.916 7.6 10.362z" fill="#fff"/></svg>