<svg xmlns="http://www.w3.org/2000/svg" width="173" height="42" fill="none"><path d="M0 8.56V42h33.44L42 33.44V0H8.56z" fill="#ed1c24"/><path d="M33.32 6.88L15.58 24.4l-6.9-6.8-5.42 5.35 12.32 12.17 23.16-22.88-5.42-5.36z" fill="#fff"/><path d="M98.3 12c-2.56 0-4.7.82-6.45 2.36a8.05 8.05 0 00-2.56 6.14c0 2.56.82 4.6 2.56 6.14A9.42 9.42 0 0098.3 29c.92 0 1.94-.1 2.76-.41a5.4 5.4 0 002.15-1.13c.51-.5 1.03-1.02 1.43-1.53.41-.51.72-1.03 1.03-1.64l-4.3-1.95c-.2.62-.62 1.13-1.23 1.64s-1.23.72-1.94.72c-1.13 0-2.15-.41-2.87-1.23a4.46 4.46 0 010-5.94 3.57 3.57 0 012.87-1.23c.71 0 1.33.2 1.94.72a3.18 3.18 0 011.23 1.64l4.3-1.95a7.7 7.7 0 00-2.66-3.38c-1.13-.92-2.77-1.33-4.71-1.33zm50.14 0c-2.56 0-4.7.82-6.45 2.36a8.05 8.05 0 00-2.55 6.14c0 2.56.82 4.6 2.55 6.14a9.43 9.43 0 006.45 2.36c1.02 0 1.94-.1 2.76-.41.82-.2 1.54-.61 2.15-1.13a19.7 19.7 0 001.44-1.53c.4-.51.71-1.03 1.02-1.64l-4.3-1.95c-.2.62-.61 1.13-1.23 1.64-.61.51-1.22.72-1.94.72-1.13 0-2.15-.41-2.87-1.23a4.47 4.47 0 010-5.94 3.57 3.57 0 012.87-1.23c.72 0 1.33.2 1.94.72a3.19 3.19 0 011.23 1.64l4.3-1.95a7.7 7.7 0 00-2.66-3.38c-1.13-.92-2.76-1.33-4.7-1.33zM50 12.3v4.3h4.4v12.1h4.91V16.6h4.4v-4.3H50zm15.45 0v16.4h4.91v-8.3l6.04 8.3h4.81V12.3H76.3v7.79l-5.73-7.78h-5.12zm41.96 0v16.4h4.9v-6.25h5.84v6.24h4.91V12.31h-4.91v5.83h-5.83v-5.83h-4.91zm18.31 0v16.4h12.39v-4.3h-7.47v-1.85h7.26v-4.3h-7.26V16.6h7.47v-4.3h-12.39zm31.73 0v16.4h4.9v-4.51l.93-1.23 3.68 5.73H173l-6.45-8.8 6.14-7.58h-6.03l-4.3 6.14v-6.14h-4.91z" fill="#000"/></svg>