<svg xmlns="http://www.w3.org/2000/svg" width="160" height="27" fill="none"><path d="M27.03 21.6 21.62 27h-20L0 25.37V5.4L5.4 0h20l1.63 1.63z" fill="#ed1c24"/><path d="m25.4 0-6.08 6.07v8.87L14.34 8.1H3.84v2.15h3.1v8.19L0 25.37V27h1.63l7.64-7.64v-9.11h3.09v8.65h2.31v-6.84l4.98 6.84h1.97V7.03l5.4-5.4V0H25.4zm34.46 7.88a5.6 5.6 0 0 0-5.8 5.62 5.54 5.54 0 0 0 5.67 5.61c2.28 0 3.65-.9 4.67-2.18l-2.22-1.71c-.63.7-1.28 1.16-2.36 1.16-1.53 0-2.62-1.26-2.62-2.88 0-1.6 1.09-2.89 2.62-2.89.93 0 1.61.37 2.19.99l2.23-1.73a5.32 5.32 0 0 0-4.38-1.99zm36.78 0c-3.4 0-5.94 2.52-5.94 5.62 0 3.13 2.51 5.61 5.9 5.61 3.4 0 5.94-2.51 5.94-5.61 0-3.13-2.5-5.62-5.9-5.62zm31.07 0a5.6 5.6 0 0 0-5.8 5.62 5.54 5.54 0 0 0 5.67 5.61c2.29 0 3.66-.9 4.67-2.18l-2.22-1.71c-.62.7-1.28 1.16-2.36 1.16-1.54 0-2.62-1.26-2.62-2.88 0-1.6 1.08-2.89 2.62-2.89.93 0 1.61.37 2.19.99l2.24-1.73a5.32 5.32 0 0 0-4.4-1.99zm11.26 0c-3.4 0-5.93 2.52-5.93 5.62 0 3.13 2.5 5.61 5.9 5.61 3.4 0 5.94-2.51 5.94-5.61 0-3.13-2.52-5.62-5.9-5.62zM43.6 8.1v10.8h8.92v-2.55h-5.9v-1.71h5.27v-2.36h-5.27v-1.64h5.82V8.1H43.6zm-11.24 0v2.62h3.3v8.18h3.04v-8.18H42V8.1h-9.64zm33.81 0v10.8h3.04v-4.1h3.92v4.1h3.04V8.1h-3.04v4.04H69.2V8.1h-3.04zm12.37 0v10.8h3.02v-5.93l4.7 5.93h2.67V8.1H85.9v5.7l-4.52-5.7h-2.85zm25.78 0v10.8h3.01v-5.93l4.7 5.93h2.67V8.1h-3.02v5.7l-4.52-5.7h-2.84zm12.75 0v10.8h3.06V8.1h-3.06zm29.58 0v10.8h8.37v-2.62h-5.32V8.1h-3.05zm-50.04 2.48a2.83 2.83 0 0 1 2.82 2.92c0 1.59-1.11 2.91-2.8 2.91a2.83 2.83 0 0 1-2.8-2.91c0-1.6 1.11-2.92 2.78-2.92zm42.33 0a2.83 2.83 0 0 1 2.83 2.92c0 1.59-1.12 2.91-2.8 2.91a2.83 2.83 0 0 1-2.81-2.91c0-1.6 1.12-2.92 2.78-2.92z" fill="#fff"/></svg>