<svg xmlns="http://www.w3.org/2000/svg" width="160" height="27" fill="none"><defs/><path d="M27.03 21.6L21.62 27H1.628L0 25.37V5.4L5.406 0H25.4l1.63 1.626z" fill="#ed1c24"/><path d="M25.4 0l-6.08 6.073v8.867l-4.98-6.839H3.845v2.149h3.094v8.19L.002 25.37V27h1.627l7.642-7.64v-9.11h3.089v8.65h2.31v-6.84l4.98 6.84h1.97V7.025l5.41-5.399V0z" fill="#fff"/><path d="M83.34 7.885c-3.33 0-5.83 2.515-5.83 5.615 0 3.13 2.47 5.62 5.8 5.62 3.34 0 5.84-2.52 5.84-5.62 0-3.13-2.47-5.615-5.81-5.615zm48.36 0c-3.4 0-5.9 2.515-5.9 5.615 0 3.13 2.5 5.62 5.8 5.62 3.4 0 5.9-2.52 5.9-5.62 0-3.13-2.5-5.615-5.8-5.615zM32.43 8.1v2.62h3.24v8.18h3v-8.18h3.24V8.1h-9.48zm11.06.002V18.9h8.77v-2.55h-5.81v-1.71h5.19v-2.36h-5.19v-1.64h5.73V8.102h-8.69zm10.15 0l3.55 5.308-3.7 5.49h3.36l2.09-3.26 2.07 3.26h3.44l-3.7-5.52 3.55-5.278h-3.37L59 11.14l-1.91-3.038h-3.45zm12.23 0V18.9h3v-4.1h3.84v4.1h3V8.102h-3v4.038h-3.84V8.102h-3zm25.09 0V18.9h3v-4.1h3.85v4.1h2.99V8.102h-2.99v4.038h-3.85V8.102h-3zm12.14 0V18.9h2.8l4.2-6.08v6.08h3V8.102h-2.8l-4.2 6.078V8.102h-3zm12.3 0V18.9h3v-2.79l1.1-1.22 2.7 4.01h3.6l-4.2-6.16 4.1-4.638h-3.6l-3.7 4.378V8.102h-3zm24.7 0v4.738c0 1.12-.1 2.74-.8 3.31-.4.27-.9.47-1.3.47v2.55h.3c1 0 2.2-.42 2.6-.7 1.8-1.15 2.1-3.32 2.1-5.79v-1.96h2.5v8.18h3V8.102h-8.4zm10.8 0V18.9h4.8c2.6 0 4.3-1.4 4.3-3.74 0-2.43-1.9-3.67-4.5-3.67h-1.6V8.102h-3zM83.31 10.58c1.66 0 2.78 1.36 2.78 2.92 0 1.59-1.09 2.91-2.75 2.91-1.63 0-2.76-1.35-2.76-2.91 0-1.59 1.09-2.92 2.73-2.92zm48.29 0c1.7 0 2.8 1.36 2.8 2.92 0 1.59-1.1 2.91-2.7 2.91-1.7 0-2.8-1.35-2.8-2.91 0-1.59 1.1-2.92 2.7-2.92zm22.3 3.26h1.5c1 0 1.6.49 1.6 1.25 0 .85-.6 1.3-1.6 1.3h-1.5v-2.55z" fill="#000"/><defs/></svg>