<svg xmlns="http://www.w3.org/2000/svg" width="500" height="100" fill="none"><path d="M0 0v55c0 14 4 26 12 33 8 8 19 12 33 12s25-4 32-12c8-7 12-19 12-33V0H67v54c0 9-2 16-6 20-4 5-9 7-16 7-15 0-22-9-22-27V0H0zm101 0l34 48-36 50h26l23-34 24 34h26l-37-51 34-47h-24l-22 32-23-32h-25zm157 0l-45 98h11l11-26h55l12 26h11L268 0h-10zm71 0v98h10V67h34l23 31h11l-24-33a32 32 0 0022-31c0-11-3-19-10-25s-17-9-30-9h-36zm91 0v9h35v89h10V9h35V0h-80zm-81 9h26c10 0 17 2 22 6 5 5 8 11 8 19 0 7-3 14-8 18s-12 6-22 6h-26V9zm-76 2l23 53h-47l24-53z" fill="#fff"/></svg>