<svg xmlns="http://www.w3.org/2000/svg" width="497" height="100"><path d="M27.97 100C15.21 99.95-.05 93.41 0 79.26V0h34.5v100zM465.2 0c13.5.1 30.94 6.23 30.9 20.75V100h-34.49V0zM170.83 99.98c-11.76.05-23.37-1.47-32.84-10.4L87.22 43.38v56.6H52.45V.1h7.17c16.1.14 24.47 2.6 33.11 10.73l50.5 45.64V20.44C143.2 3.54 164.26.14 177.74.1v99.87zm102.66-39.9h-43.5v19.44h77.58c.37 16.77-18.37 20.5-31.46 20.48H195l.16-99.9 80.95-.1c15.7.1 31.48 6.85 31.46 21.01h-77.58v18.06h43.5zm172.14 19.17c.02 16.67-15.45 20.77-31.46 20.75h-93.6V0h93.6c14.99.53 31.2 5.08 31.46 21.01zM355.9 21.01v58.51h55.52v-58.5z" fill="#fff" fill-rule="evenodd"/></svg>