<svg xmlns="http://www.w3.org/2000/svg" width="109" height="109" fill="none"><rect rx="10" height="109" width="109" fill="#f7f8fa"/><path d="M58 28h30c5 0 9 4 9 9v48c0 5-4 9-9 9H21c-5 0-9-4-9-9V37c0-5 4-9 9-9h1" stroke="#fff" stroke-width="2" stroke-dasharray="4 4"/><path d="M58 86H24a2 2 0 01-2-2V18c0-1.1.9-2 2-2h32a2 2 0 012 2v40m0 28h26a2 2 0 002-2V59.2a2 2 0 00-1.1-1.8l-12-6a2 2 0 00-1.8 0L58 58m0 28V58" stroke="#d3d8e2" stroke-width="2"/><path d="M27 23v6h6v-6zm10 0v6h6v-6zm10 0v6h6v-6zM27 35v6h6v-6zm10 0v6h6v-6zm10 0v6h6v-6zM27 47v6h6v-6zm10 0v6h6v-6zm10 0v6h6v-6zm25 10a3 3 0 100 6 3 3 0 000-6zm-45 2v6h6v-6zm10 0v6h6v-6zm10 0v6h6v-6zm16 8v6h6v-6zm12 0v6h6v-6zm-48 4v6h6v-6zm10 0v6h6v-6zm10 0v6h6v-6zm16 5v6h6v-6zm12 0v6h6v-6z" fill="#d3d8e2"/></svg>