<svg width="32" height="32" fill="none" xmlns="http://www.w3.org/2000/svg"><path d="M20 29s6 0 6-7m0 0h2a2 2 0 002-2v-5a2 2 0 00-2-2h-2m0 9h-2v-9h2m0 0v-2c0-6-4-10-9-10h-1C10 1 6 5 6 11v2m0 0H4a2 2 0 00-2 2v5a2 2 0 002 2h4v-9H6z" stroke="#fff" stroke-width="1.6" stroke-miterlimit="10" stroke-linecap="round" stroke-linejoin="round"/><path d="M4 13h4v9H4a2 2 0 01-2-2v-5a2 2 0 012-2zM28 22h-4v-9h4a2 2 0 012 2v5a2 2 0 01-2 2z" stroke="#ED1C24" stroke-width="1.6" stroke-miterlimit="10" stroke-linecap="round" stroke-linejoin="round"/><path d="M20 29a2 2 0 00-2-2h-2a2 2 0 000 4h2a2 2 0 002-2z" stroke="#fff" stroke-width="1.6" stroke-miterlimit="10" stroke-linecap="round" stroke-linejoin="round"/></svg>