<svg xmlns="http://www.w3.org/2000/svg" width="60" height="60" fill="none"><path d="M37 42.6L31.3 56a1 1 0 01-1.4.5c-1-.4-1.9-.7-2.8-1.2-.5-.2-.7-.8-.5-1.4l5.5-13.4-1.4-2.6.7-1.6 9 3.6-.8 2zM41.4 37l-.1.3-8.2-3.2.2-.6 1.8-1 5.7 2.4zM39.5 25.5l.6.3 1.2-2.7 1.6.7-1.1 2.7.7.3-3 7.4-3-1.2z" stroke="#fff" stroke-width="1.2"/><path d="M46.5 15.5a22 22 0 01-9 35.2M28.5 8a22 22 0 00-5 42.9" stroke="#ED1C24" stroke-width="1.6"/><path d="M22.1 44c0-.8 1.4-5.4 2.6-9.1m0 0l1-3-2.3-1.3 6.3-12.4 6.2-3.6 1.8 2.7 9.3-5.4L42.6 3l-9.8 5.8 1.8 3.1-7.2 4-6.2 12.5-2.6-.4L15 39l3.6 3.6 4.4-8.5z" stroke="#fff" stroke-width="1.2" stroke-linecap="round" stroke-linejoin="round"/></svg>