<svg xmlns="http://www.w3.org/2000/svg" width="30" height="30" fill="none"><defs><linearGradient id="a" x1="15" y1="29" x2="15" y2="1" gradientUnits="userSpaceOnUse"><stop stop-color="#20B038"/><stop offset="1" stop-color="#60D66A"/></linearGradient></defs><path d="M15 .92A13.98 13.98 0 001.01 14.86c0 2.45.65 4.85 1.87 6.96L.89 29.03 8.3 27.1A13.98 13.98 0 0029 14.87c0-3.73-1.45-7.23-4.1-9.86A13.9 13.9 0 0015 .92z" fill="#fff"/><path d="M15 3.28a11.61 11.61 0 00-9.86 17.74l.28.44-1.18 4.27 4.41-1.16.42.25A11.58 11.58 0 0015 26.44c2.04 0 0 0 0 0 6.41 0 11.63-5.2 11.63-11.58A11.56 11.56 0 0015 3.27zm-4.28 5.14c.24 0 .52.02.78.6.31.69 1 2.4 1.08 2.58.09.18.14.38.03.6-.12.24-.18.4-.35.6l-.52.6c-.18.17-.36.36-.16.7.2.35.9 1.5 1.95 2.42 1.33 1.19 2.46 1.56 2.8 1.73.36.17.56.15.77-.09.2-.23.87-1.01 1.1-1.36.23-.35.46-.3.79-.17.32.12 2.04.96 2.38 1.13.35.18.59.26.67.41.1.15.1.84-.2 1.66-.29.81-1.71 1.6-2.36 1.65-.63.06-1.24.3-4.19-.86-3.55-1.4-5.8-5.03-5.97-5.26-.17-.24-1.43-1.9-1.43-3.6 0-1.72.8-2.7 1.22-2.91a3.3 3.3 0 011.6-.43z" fill="url(#a)"/></svg>